<svg version="1.1" id="Layer_1" xmlns="http://www.w3.org/2000/svg" xmlns:xlink="http://www.w3.org/1999/xlink" x="0px" y="0px"
	 width="100%" viewBox="0 0 1000 1000" enable-background="new 0 0 1000 1000" xml:space="preserve">
<path fill="#17B978" opacity="1.000000" stroke="none" 
	d="
M556.000000,1001.000000 
	C370.666656,1001.000000 185.833328,1001.000000 1.000000,1001.000000 
	C1.000000,667.666687 1.000000,334.333344 1.000000,1.000000 
	C334.333344,1.000000 667.666687,1.000000 1001.000000,1.000000 
	C1001.000000,334.333344 1001.000000,667.666687 1001.000000,1001.000000 
	C852.833313,1001.000000 704.666687,1001.000000 556.000000,1001.000000 
M626.410950,797.010681 
	C579.524292,815.826660 530.922974,822.863525 480.633514,818.123047 
	C432.947266,813.627991 388.895966,798.380981 347.774506,773.909424 
	C312.200867,752.739441 283.907135,723.874023 259.230133,691.261230 
	C251.292725,680.771240 241.398666,673.967224 229.610748,669.464539 
	C212.051834,662.757690 194.196854,661.217102 176.723557,669.572449 
	C148.824814,682.912842 142.131454,724.176758 163.671448,748.527954 
	C176.339722,762.849548 194.351730,766.086121 210.631226,756.931763 
	C217.230270,753.220886 221.785843,747.836731 222.824478,740.204834 
	C224.061035,731.118347 221.224304,722.932495 216.863907,715.680481 
	C211.304031,719.744019 206.384415,724.448181 200.571213,727.381226 
	C182.884399,736.305115 163.251907,724.638977 162.290237,705.106201 
	C161.583908,690.759644 175.149994,675.540283 190.051773,673.940125 
	C204.805267,672.355774 217.382492,678.187012 229.487518,685.547546 
	C247.305206,696.381653 260.252960,711.734741 270.744324,729.523865 
	C282.663483,749.733948 296.729706,768.234741 315.460449,782.767639 
	C336.685974,799.236145 359.809296,810.861755 387.409790,811.428772 
	C392.950775,811.542542 398.889374,811.372314 403.942413,813.236450 
	C458.233765,833.265442 513.922607,839.243591 570.969788,829.609741 
	C650.893311,816.112732 717.917175,778.692200 769.781677,716.503418 
	C838.372559,634.258667 863.933777,539.491577 844.835144,433.865845 
	C832.157532,363.751221 799.563660,303.437592 746.846741,255.349762 
	C666.273071,181.851303 571.425842,154.137939 464.159210,174.573441 
	C388.862854,188.918243 325.812408,226.597214 276.159485,285.019684 
	C220.116913,350.960358 192.908844,427.683868 194.804962,514.465515 
	C195.770386,558.651123 205.541458,600.796814 223.473541,641.153259 
	C225.368713,645.418335 228.484711,647.231506 232.961639,649.360107 
	C232.018311,647.231812 231.483261,645.900879 230.851654,644.617432 
	C198.729385,579.340942 188.986237,510.659851 203.630798,439.613342 
	C225.186951,335.036102 283.832062,257.362366 379.451569,209.183655 
	C444.569092,176.373627 513.780029,167.164139 584.890259,183.623199 
	C690.840454,208.146271 765.301453,271.615814 807.354858,371.917664 
	C832.418518,431.697113 838.552429,494.145325 824.745544,557.473694 
	C800.035828,670.809875 734.157837,750.982117 626.410950,797.010681 
M533.467041,673.941345 
	C532.710327,672.321838 531.820557,670.750305 531.217468,669.075500 
	C525.137268,652.189087 518.992249,635.324463 513.129456,618.362427 
	C511.485565,613.606323 508.625946,611.144104 503.712463,611.051819 
	C498.174316,610.947815 492.418121,610.591003 489.390869,616.706177 
	C482.236816,631.157593 475.159607,645.647095 468.087128,660.138672 
	C467.039215,662.285828 466.185333,664.527649 465.241699,666.725708 
	C464.761658,666.671692 464.281616,666.617676 463.801575,666.563660 
	C461.540161,653.357239 458.419983,640.229004 457.208344,626.926941 
	C455.126678,604.074036 454.102783,581.119446 452.944397,558.191895 
	C452.676422,552.887390 449.889862,551.383667 445.450989,550.801880 
	C437.628845,549.776550 431.503326,551.571899 430.401428,555.468140 
	C430.092102,556.561829 430.147095,557.781982 430.168579,558.941589 
	C430.239532,562.769226 430.419556,566.595154 430.472961,570.422913 
	C431.101807,615.489319 438.385468,659.501343 451.094788,702.697449 
	C452.523315,707.552734 455.286621,709.590698 459.904266,709.856934 
	C462.060120,709.981140 464.235657,709.976379 466.391357,709.847290 
	C470.975342,709.572876 473.773285,707.672485 475.203064,702.742554 
	C478.023468,693.017517 481.405823,683.425171 485.104065,673.992920 
	C489.323212,663.232117 494.140015,652.705627 498.697052,642.077332 
	C499.308075,642.098022 499.919067,642.118713 500.530060,642.139343 
	C506.662476,662.645874 513.006653,683.093018 518.783997,703.699036 
	C520.299988,709.106262 523.093262,711.590820 528.327271,712.091553 
	C537.191650,712.939575 540.392395,711.789001 542.825073,705.768677 
	C550.171936,687.586731 558.064514,669.575195 564.345825,651.023743 
	C575.815552,617.148315 579.318481,582.531494 570.442444,547.331970 
	C568.676819,540.329895 567.103821,538.914856 559.901672,538.393494 
	C557.453613,538.216309 554.916077,538.587219 552.482300,539.043335 
	C547.347961,540.005554 546.455383,541.462646 547.767639,546.595276 
	C551.498291,561.186829 553.706726,575.981934 553.038635,591.058472 
	C551.771912,619.642029 544.283936,646.821838 533.467041,673.941345 
M461.500000,399.997803 
	C451.046600,399.997803 440.593201,399.997803 430.152802,399.997803 
	C430.068420,401.054596 429.945618,401.552185 430.002533,402.028320 
	C432.373535,421.867554 434.697937,441.713135 437.300232,461.522156 
	C437.458008,462.723114 439.775269,464.412323 441.200928,464.532593 
	C445.784576,464.919250 450.421326,464.676453 455.399780,464.676453 
	C455.728424,468.866150 455.992889,472.237610 456.298584,476.134766 
	C450.437958,476.134766 445.201630,476.134766 440.148926,476.134766 
	C439.216187,480.996155 441.337555,481.926605 445.359161,481.913483 
	C483.022644,481.790375 520.686707,481.843475 558.350586,481.828430 
	C559.793152,481.827850 561.235596,481.652557 562.727173,481.555450 
	C563.077393,479.603119 563.364075,478.004761 563.743347,475.890320 
	C558.006348,475.890320 552.568420,475.890320 546.764160,475.890320 
	C547.257935,471.981232 547.686096,468.591064 548.183533,464.652618 
	C554.194336,464.652618 559.811829,464.652618 565.711853,464.652618 
	C568.363342,442.865143 570.945190,421.649750 573.580139,399.997803 
	C536.102478,399.997803 499.301239,399.997803 461.500000,399.997803 
M580.373962,380.994202 
	C578.559265,380.181030 576.818359,378.969238 574.918213,378.617157 
	C558.430054,375.561951 541.923584,372.599854 525.388855,369.810272 
	C523.760437,369.535553 521.833923,370.415985 520.168274,371.071594 
	C507.662292,375.994080 495.213013,376.049042 482.728485,370.976532 
	C481.087433,370.309784 479.148315,369.572205 477.505432,369.839569 
	C461.767273,372.400696 446.050873,375.102356 430.354431,377.910187 
	C422.485474,379.317810 417.897522,384.499664 415.536377,391.840942 
	C414.520477,394.999634 413.921631,398.293610 412.884003,401.443970 
	C410.144348,409.761749 407.287628,418.041199 404.441345,426.323486 
	C401.425171,435.099884 397.580872,443.681305 395.515015,452.673370 
	C392.527863,465.675476 399.026001,477.264923 410.201416,479.373322 
	C418.613342,480.960297 427.306671,481.055573 436.397430,481.861237 
	C435.929321,478.313568 435.533020,475.309906 435.087799,471.935638 
	C440.960266,471.935638 446.408997,471.935638 451.857758,471.935638 
	C451.959991,471.355408 452.062195,470.775146 452.164429,470.194916 
	C446.839752,466.703979 439.997559,469.812317 434.056610,467.447052 
	C431.212128,443.955170 428.347626,420.297974 425.464630,396.487976 
	C476.803680,396.487976 527.195251,396.487976 577.918274,396.487976 
	C574.967407,420.541016 572.059753,444.242188 569.138916,468.050720 
	C565.352417,468.235046 562.153320,468.085907 559.078064,468.632721 
	C556.407043,469.107666 552.483765,466.958344 550.704285,472.195709 
	C556.953979,472.195709 562.485840,472.195709 568.228088,472.195709 
	C567.760132,475.636658 567.368713,478.514191 566.911438,481.876740 
	C574.313293,481.221436 581.063721,480.495758 587.832703,480.051514 
	C601.329651,479.165710 609.602295,470.491852 608.030273,457.028717 
	C607.081177,448.900574 604.934326,440.610474 601.654541,433.125397 
	C596.434937,421.213318 591.670166,409.337341 588.869141,396.550385 
	C587.693909,391.185120 583.690063,386.439423 580.373962,380.994202 
M406.818878,666.452087 
	C398.848907,664.947693 392.632355,666.759094 388.325409,674.464233 
	C385.263092,679.942810 381.264954,684.982910 377.176483,689.786377 
	C367.191284,701.517883 350.604156,700.380920 343.684143,687.358887 
	C336.035583,672.965881 334.413177,657.441223 336.338776,641.214233 
	C337.657501,641.076843 338.784271,640.945007 339.913788,640.844055 
	C353.031403,639.671509 365.454651,636.164001 376.636780,629.107056 
	C396.477814,616.585632 409.020508,599.567017 408.121918,575.029968 
	C407.257629,551.429871 388.811554,539.262695 366.197327,544.903259 
	C352.505646,548.318298 343.976044,558.443481 336.988922,569.883362 
	C325.200348,589.184631 318.971802,610.538513 314.876892,632.559326 
	C312.013275,647.958557 311.795624,663.372253 317.025055,678.414368 
	C327.735809,709.223145 366.963989,720.229980 390.557251,698.692749 
	C398.112671,691.795715 404.528076,683.563171 410.926971,675.513977 
	C415.781891,669.406860 415.148560,668.431763 406.818878,666.452087 
M723.958008,586.335510 
	C724.696167,584.624939 726.122192,582.881836 726.043335,581.209839 
	C725.808899,576.242798 725.264465,571.250061 724.336060,566.363342 
	C720.930908,548.440918 707.237244,538.478149 689.116150,538.549561 
	C668.990173,538.628906 641.474854,559.935913 637.222900,584.859863 
	C635.250061,596.424194 638.975464,606.352234 648.633667,613.386292 
	C653.590759,616.996582 659.160156,619.753296 664.281616,623.153687 
	C672.578491,628.662415 681.171936,633.848328 688.856262,640.129517 
	C703.638855,652.213013 706.711487,672.925720 696.918396,689.357300 
	C690.419128,700.262268 673.107361,700.128540 666.874573,689.073120 
	C662.938232,682.090759 661.259766,674.479309 661.634033,666.525818 
	C662.078918,657.070190 661.461365,656.036255 651.895752,655.613708 
	C648.818237,655.477783 645.508667,655.939392 642.655396,657.037415 
	C640.787231,657.756348 638.736084,659.863525 638.156921,661.770935 
	C633.796143,676.132751 640.292725,692.532898 653.112305,700.377991 
	C671.978455,711.923279 698.822876,710.176392 716.037537,696.289490 
	C721.438965,691.932190 724.904663,686.353455 726.008972,679.522766 
	C728.699158,662.883606 723.763672,648.663330 711.989807,636.722656 
	C704.181580,628.803833 694.883911,623.128052 685.060181,618.028320 
	C678.918335,614.839966 673.131653,610.811829 667.642212,606.569641 
	C662.831543,602.852051 660.054871,597.417480 660.643677,591.252747 
	C662.203796,574.917908 670.934204,562.679321 684.076660,553.577576 
	C689.492859,549.826599 695.282043,551.640503 697.560852,557.790222 
	C699.784424,563.790649 701.293335,570.220703 701.985229,576.585083 
	C703.015747,586.063782 705.872742,589.116089 715.487183,588.420593 
	C718.103943,588.231323 720.669800,587.337463 723.958008,586.335510 
M541.772949,347.200195 
	C552.286804,327.150085 548.368958,304.790039 531.749573,289.994690 
	C516.274109,276.217712 492.695679,274.979614 475.328796,287.032013 
	C459.967560,297.692505 452.663940,316.515259 456.784973,334.822815 
	C460.849792,352.880829 475.678436,367.162262 493.407898,370.094330 
	C513.166260,373.361938 530.788147,365.172577 541.772949,347.200195 
M297.849457,637.500061 
	C298.567474,608.386902 299.283600,579.273621 300.004486,550.160522 
	C300.245117,540.442139 298.512512,538.650208 288.687592,538.898926 
	C286.557678,538.952820 284.046448,538.991333 282.423370,540.089783 
	C280.526001,541.373840 278.282654,543.729980 278.136292,545.761353 
	C277.180389,559.029785 276.402832,572.331360 276.217773,585.631226 
	C275.694275,623.252197 275.460114,660.877380 275.165009,698.501282 
	C275.074829,709.998901 276.950775,711.697510 288.562042,711.155884 
	C289.393188,711.117126 290.234467,711.095947 291.049683,710.948486 
	C295.488892,710.145996 297.999329,708.136902 297.945160,702.953613 
	C297.720642,681.471130 297.850006,659.984924 297.849457,637.500061 
M618.228088,705.421936 
	C618.322998,702.101196 618.542480,698.778625 618.493530,695.460022 
	C618.023987,663.688477 617.482483,631.917969 617.024780,600.146301 
	C616.899719,591.464172 615.433533,589.811157 606.647522,589.539673 
	C604.667297,589.478577 602.654053,589.717712 600.690735,590.033936 
	C596.720093,590.673462 594.697510,592.711731 594.760864,597.132141 
	C595.264099,632.239014 595.564880,667.348816 596.106567,702.455017 
	C596.134949,704.291260 597.319580,706.741760 598.772095,707.805054 
	C603.080750,710.958923 613.710449,709.800049 618.228088,705.421936 
M620.026245,547.683411 
	C614.820251,539.161255 606.014038,536.272400 597.864807,540.413391 
	C590.748230,544.029602 587.502991,552.816711 590.447388,560.497681 
	C593.484741,568.421143 602.202515,572.454956 610.574585,569.810852 
	C619.344666,567.041077 623.232666,558.506531 620.026245,547.683411 
z"/>
<path fill="#FAFDFC" opacity="1.000000" stroke="none" 
	d="
M626.781128,796.895691 
	C734.157837,750.982117 800.035828,670.809875 824.745544,557.473694 
	C838.552429,494.145325 832.418518,431.697113 807.354858,371.917664 
	C765.301453,271.615814 690.840454,208.146271 584.890259,183.623199 
	C513.780029,167.164139 444.569092,176.373627 379.451569,209.183655 
	C283.832062,257.362366 225.186951,335.036102 203.630798,439.613342 
	C188.986237,510.659851 198.729385,579.340942 230.851654,644.617432 
	C231.483261,645.900879 232.018311,647.231812 232.961639,649.360107 
	C228.484711,647.231506 225.368713,645.418335 223.473541,641.153259 
	C205.541458,600.796814 195.770386,558.651123 194.804962,514.465515 
	C192.908844,427.683868 220.116913,350.960358 276.159485,285.019684 
	C325.812408,226.597214 388.862854,188.918243 464.159210,174.573441 
	C571.425842,154.137939 666.273071,181.851303 746.846741,255.349762 
	C799.563660,303.437592 832.157532,363.751221 844.835144,433.865845 
	C863.933777,539.491577 838.372559,634.258667 769.781677,716.503418 
	C717.917175,778.692200 650.893311,816.112732 570.969788,829.609741 
	C513.922607,839.243591 458.233765,833.265442 403.942413,813.236450 
	C398.889374,811.372314 392.950775,811.542542 387.409790,811.428772 
	C359.809296,810.861755 336.685974,799.236145 315.460449,782.767639 
	C296.729706,768.234741 282.663483,749.733948 270.744324,729.523865 
	C260.252960,711.734741 247.305206,696.381653 229.487518,685.547546 
	C217.382492,678.187012 204.805267,672.355774 190.051773,673.940125 
	C175.149994,675.540283 161.583908,690.759644 162.290237,705.106201 
	C163.251907,724.638977 182.884399,736.305115 200.571213,727.381226 
	C206.384415,724.448181 211.304031,719.744019 216.863907,715.680481 
	C221.224304,722.932495 224.061035,731.118347 222.824478,740.204834 
	C221.785843,747.836731 217.230270,753.220886 210.631226,756.931763 
	C194.351730,766.086121 176.339722,762.849548 163.671448,748.527954 
	C142.131454,724.176758 148.824814,682.912842 176.723557,669.572449 
	C194.196854,661.217102 212.051834,662.757690 229.610748,669.464539 
	C241.398666,673.967224 251.292725,680.771240 259.230133,691.261230 
	C283.907135,723.874023 312.200867,752.739441 347.774506,773.909424 
	C388.895966,798.380981 432.947266,813.627991 480.633514,818.123047 
	C530.922974,822.863525 579.524292,815.826660 626.781128,796.895691 
z"/>
<path fill="#FCFEFD" opacity="1.000000" stroke="none" 
	d="
M533.703003,673.630066 
	C544.283936,646.821838 551.771912,619.642029 553.038635,591.058472 
	C553.706726,575.981934 551.498291,561.186829 547.767639,546.595276 
	C546.455383,541.462646 547.347961,540.005554 552.482300,539.043335 
	C554.916077,538.587219 557.453613,538.216309 559.901672,538.393494 
	C567.103821,538.914856 568.676819,540.329895 570.442444,547.331970 
	C579.318481,582.531494 575.815552,617.148315 564.345825,651.023743 
	C558.064514,669.575195 550.171936,687.586731 542.825073,705.768677 
	C540.392395,711.789001 537.191650,712.939575 528.327271,712.091553 
	C523.093262,711.590820 520.299988,709.106262 518.783997,703.699036 
	C513.006653,683.093018 506.662476,662.645874 500.530060,642.139343 
	C499.919067,642.118713 499.308075,642.098022 498.697052,642.077332 
	C494.140015,652.705627 489.323212,663.232117 485.104065,673.992920 
	C481.405823,683.425171 478.023468,693.017517 475.203064,702.742554 
	C473.773285,707.672485 470.975342,709.572876 466.391357,709.847290 
	C464.235657,709.976379 462.060120,709.981140 459.904266,709.856934 
	C455.286621,709.590698 452.523315,707.552734 451.094788,702.697449 
	C438.385468,659.501343 431.101807,615.489319 430.472961,570.422913 
	C430.419556,566.595154 430.239532,562.769226 430.168579,558.941589 
	C430.147095,557.781982 430.092102,556.561829 430.401428,555.468140 
	C431.503326,551.571899 437.628845,549.776550 445.450989,550.801880 
	C449.889862,551.383667 452.676422,552.887390 452.944397,558.191895 
	C454.102783,581.119446 455.126678,604.074036 457.208344,626.926941 
	C458.419983,640.229004 461.540161,653.357239 463.801575,666.563660 
	C464.281616,666.617676 464.761658,666.671692 465.241699,666.725708 
	C466.185333,664.527649 467.039215,662.285828 468.087128,660.138672 
	C475.159607,645.647095 482.236816,631.157593 489.390869,616.706177 
	C492.418121,610.591003 498.174316,610.947815 503.712463,611.051819 
	C508.625946,611.144104 511.485565,613.606323 513.129456,618.362427 
	C518.992249,635.324463 525.137268,652.189087 531.217468,669.075500 
	C531.820557,670.750305 532.710327,672.321838 533.703003,673.630066 
z"/>
<path fill="#FEFFFE" opacity="1.000000" stroke="none" 
	d="
M462.000000,399.997803 
	C499.301239,399.997803 536.102478,399.997803 573.580139,399.997803 
	C570.945190,421.649750 568.363342,442.865143 565.711853,464.652618 
	C559.811829,464.652618 554.194336,464.652618 548.183533,464.652618 
	C547.686096,468.591064 547.257935,471.981232 546.764160,475.890320 
	C552.568420,475.890320 558.006348,475.890320 563.743347,475.890320 
	C563.364075,478.004761 563.077393,479.603119 562.727173,481.555450 
	C561.235596,481.652557 559.793152,481.827850 558.350586,481.828430 
	C520.686707,481.843475 483.022644,481.790375 445.359161,481.913483 
	C441.337555,481.926605 439.216187,480.996155 440.148926,476.134766 
	C445.201630,476.134766 450.437958,476.134766 456.298584,476.134766 
	C455.992889,472.237610 455.728424,468.866150 455.399780,464.676453 
	C450.421326,464.676453 445.784576,464.919250 441.200928,464.532593 
	C439.775269,464.412323 437.458008,462.723114 437.300232,461.522156 
	C434.697937,441.713135 432.373535,421.867554 430.002533,402.028320 
	C429.945618,401.552185 430.068420,401.054596 430.152802,399.997803 
	C440.593201,399.997803 451.046600,399.997803 462.000000,399.997803 
z"/>
<path fill="#FDFEFE" opacity="1.000000" stroke="none" 
	d="
M580.673035,381.203125 
	C583.690063,386.439423 587.693909,391.185120 588.869141,396.550385 
	C591.670166,409.337341 596.434937,421.213318 601.654541,433.125397 
	C604.934326,440.610474 607.081177,448.900574 608.030273,457.028717 
	C609.602295,470.491852 601.329651,479.165710 587.832703,480.051514 
	C581.063721,480.495758 574.313293,481.221436 566.911438,481.876740 
	C567.368713,478.514191 567.760132,475.636658 568.228088,472.195709 
	C562.485840,472.195709 556.953979,472.195709 550.704285,472.195709 
	C552.483765,466.958344 556.407043,469.107666 559.078064,468.632721 
	C562.153320,468.085907 565.352417,468.235046 569.138916,468.050720 
	C572.059753,444.242188 574.967407,420.541016 577.918274,396.487976 
	C527.195251,396.487976 476.803680,396.487976 425.464630,396.487976 
	C428.347626,420.297974 431.212128,443.955170 434.056610,467.447052 
	C439.997559,469.812317 446.839752,466.703979 452.164429,470.194916 
	C452.062195,470.775146 451.959991,471.355408 451.857758,471.935638 
	C446.408997,471.935638 440.960266,471.935638 435.087799,471.935638 
	C435.533020,475.309906 435.929321,478.313568 436.397430,481.861237 
	C427.306671,481.055573 418.613342,480.960297 410.201416,479.373322 
	C399.026001,477.264923 392.527863,465.675476 395.515015,452.673370 
	C397.580872,443.681305 401.425171,435.099884 404.441345,426.323486 
	C407.287628,418.041199 410.144348,409.761749 412.884003,401.443970 
	C413.921631,398.293610 414.520477,394.999634 415.536377,391.840942 
	C417.897522,384.499664 422.485474,379.317810 430.354431,377.910187 
	C446.050873,375.102356 461.767273,372.400696 477.505432,369.839569 
	C479.148315,369.572205 481.087433,370.309784 482.728485,370.976532 
	C495.213013,376.049042 507.662292,375.994080 520.168274,371.071594 
	C521.833923,370.415985 523.760437,369.535553 525.388855,369.810272 
	C541.923584,372.599854 558.430054,375.561951 574.918213,378.617157 
	C576.818359,378.969238 578.559265,380.181030 580.673035,381.203125 
z"/>
<path fill="#FCFEFD" opacity="1.000000" stroke="none" 
	d="
M407.233856,666.546936 
	C415.148560,668.431763 415.781891,669.406860 410.926971,675.513977 
	C404.528076,683.563171 398.112671,691.795715 390.557251,698.692749 
	C366.963989,720.229980 327.735809,709.223145 317.025055,678.414368 
	C311.795624,663.372253 312.013275,647.958557 314.876892,632.559326 
	C318.971802,610.538513 325.200348,589.184631 336.988922,569.883362 
	C343.976044,558.443481 352.505646,548.318298 366.197327,544.903259 
	C388.811554,539.262695 407.257629,551.429871 408.121918,575.029968 
	C409.020508,599.567017 396.477814,616.585632 376.636780,629.107056 
	C365.454651,636.164001 353.031403,639.671509 339.913788,640.844055 
	C338.784271,640.945007 337.657501,641.076843 336.338776,641.214233 
	C334.413177,657.441223 336.035583,672.965881 343.684143,687.358887 
	C350.604156,700.380920 367.191284,701.517883 377.176483,689.786377 
	C381.264954,684.982910 385.263092,679.942810 388.325409,674.464233 
	C392.632355,666.759094 398.848907,664.947693 407.233856,666.546936 
M386.647095,580.910522 
	C387.606628,572.889771 386.355469,565.333374 381.773193,558.537903 
	C378.566803,553.782837 374.232574,553.036072 369.977142,556.853699 
	C367.542572,559.037659 365.388794,561.696045 363.664581,564.484619 
	C351.791321,583.686829 342.873993,604.129395 338.345917,626.347534 
	C338.100159,627.553345 338.178162,628.825073 338.103180,630.104553 
	C360.681580,629.144226 382.279114,607.364075 386.647095,580.910522 
z"/>
<path fill="#FBFEFD" opacity="1.000000" stroke="none" 
	d="
M723.608521,586.551208 
	C720.669800,587.337463 718.103943,588.231323 715.487183,588.420593 
	C705.872742,589.116089 703.015747,586.063782 701.985229,576.585083 
	C701.293335,570.220703 699.784424,563.790649 697.560852,557.790222 
	C695.282043,551.640503 689.492859,549.826599 684.076660,553.577576 
	C670.934204,562.679321 662.203796,574.917908 660.643677,591.252747 
	C660.054871,597.417480 662.831543,602.852051 667.642212,606.569641 
	C673.131653,610.811829 678.918335,614.839966 685.060181,618.028320 
	C694.883911,623.128052 704.181580,628.803833 711.989807,636.722656 
	C723.763672,648.663330 728.699158,662.883606 726.008972,679.522766 
	C724.904663,686.353455 721.438965,691.932190 716.037537,696.289490 
	C698.822876,710.176392 671.978455,711.923279 653.112305,700.377991 
	C640.292725,692.532898 633.796143,676.132751 638.156921,661.770935 
	C638.736084,659.863525 640.787231,657.756348 642.655396,657.037415 
	C645.508667,655.939392 648.818237,655.477783 651.895752,655.613708 
	C661.461365,656.036255 662.078918,657.070190 661.634033,666.525818 
	C661.259766,674.479309 662.938232,682.090759 666.874573,689.073120 
	C673.107361,700.128540 690.419128,700.262268 696.918396,689.357300 
	C706.711487,672.925720 703.638855,652.213013 688.856262,640.129517 
	C681.171936,633.848328 672.578491,628.662415 664.281616,623.153687 
	C659.160156,619.753296 653.590759,616.996582 648.633667,613.386292 
	C638.975464,606.352234 635.250061,596.424194 637.222900,584.859863 
	C641.474854,559.935913 668.990173,538.628906 689.116150,538.549561 
	C707.237244,538.478149 720.930908,548.440918 724.336060,566.363342 
	C725.264465,571.250061 725.808899,576.242798 726.043335,581.209839 
	C726.122192,582.881836 724.696167,584.624939 723.608521,586.551208 
z"/>
<path fill="#FEFFFE" opacity="1.000000" stroke="none" 
	d="
M541.567749,347.504364 
	C530.788147,365.172577 513.166260,373.361938 493.407898,370.094330 
	C475.678436,367.162262 460.849792,352.880829 456.784973,334.822815 
	C452.663940,316.515259 459.967560,297.692505 475.328796,287.032013 
	C492.695679,274.979614 516.274109,276.217712 531.749573,289.994690 
	C548.368958,304.790039 552.286804,327.150085 541.567749,347.504364 
z"/>
<path fill="#FBFEFC" opacity="1.000000" stroke="none" 
	d="
M297.849426,638.000122 
	C297.850006,659.984924 297.720642,681.471130 297.945160,702.953613 
	C297.999329,708.136902 295.488892,710.145996 291.049683,710.948486 
	C290.234467,711.095947 289.393188,711.117126 288.562042,711.155884 
	C276.950775,711.697510 275.074829,709.998901 275.165009,698.501282 
	C275.460114,660.877380 275.694275,623.252197 276.217773,585.631226 
	C276.402832,572.331360 277.180389,559.029785 278.136292,545.761353 
	C278.282654,543.729980 280.526001,541.373840 282.423370,540.089783 
	C284.046448,538.991333 286.557678,538.952820 288.687592,538.898926 
	C298.512512,538.650208 300.245117,540.442139 300.004486,550.160522 
	C299.283600,579.273621 298.567474,608.386902 297.849426,638.000122 
z"/>
<path fill="#FBFEFD" opacity="1.000000" stroke="none" 
	d="
M618.085144,705.806213 
	C613.710449,709.800049 603.080750,710.958923 598.772095,707.805054 
	C597.319580,706.741760 596.134949,704.291260 596.106567,702.455017 
	C595.564880,667.348816 595.264099,632.239014 594.760864,597.132141 
	C594.697510,592.711731 596.720093,590.673462 600.690735,590.033936 
	C602.654053,589.717712 604.667297,589.478577 606.647522,589.539673 
	C615.433533,589.811157 616.899719,591.464172 617.024780,600.146301 
	C617.482483,631.917969 618.023987,663.688477 618.493530,695.460022 
	C618.542480,698.778625 618.322998,702.101196 618.085144,705.806213 
z"/>
<path fill="#FAFEFC" opacity="1.000000" stroke="none" 
	d="
M620.181274,548.033203 
	C623.232666,558.506531 619.344666,567.041077 610.574585,569.810852 
	C602.202515,572.454956 593.484741,568.421143 590.447388,560.497681 
	C587.502991,552.816711 590.748230,544.029602 597.864807,540.413391 
	C606.014038,536.272400 614.820251,539.161255 620.181274,548.033203 
z"/>
<path fill="#1ABA79" opacity="1.000000" stroke="none" 
	d="
M386.546692,581.338379 
	C382.279114,607.364075 360.681580,629.144226 338.103180,630.104553 
	C338.178162,628.825073 338.100159,627.553345 338.345917,626.347534 
	C342.873993,604.129395 351.791321,583.686829 363.664581,564.484619 
	C365.388794,561.696045 367.542572,559.037659 369.977142,556.853699 
	C374.232574,553.036072 378.566803,553.782837 381.773193,558.537903 
	C386.355469,565.333374 387.606628,572.889771 386.546692,581.338379 
z"/>
</svg>